<mxfile host="app.diagrams.net" agent="Mozilla/5.0 (Windows NT 10.0; Win64; x64) AppleWebKit/537.36 (KHTML, like Gecko) Chrome/133.0.0.0 Safari/537.36" version="26.0.11">
  <diagram name="Page-1" id="mGbXsyDZzhbwppL-lWKr">
    <mxGraphModel dx="1477" dy="597" grid="1" gridSize="20" guides="1" tooltips="1" connect="1" arrows="1" fold="1" page="1" pageScale="1" pageWidth="1169" pageHeight="827" math="0" shadow="0">
      <root>
        <mxCell id="0" />
        <mxCell id="1" parent="0" />
        <mxCell id="dV4cclxi9XEdyNf_fbqK-8" value="Public subnet" style="points=[[0,0],[0.25,0],[0.5,0],[0.75,0],[1,0],[1,0.25],[1,0.5],[1,0.75],[1,1],[0.75,1],[0.5,1],[0.25,1],[0,1],[0,0.75],[0,0.5],[0,0.25]];outlineConnect=0;gradientColor=none;html=1;whiteSpace=wrap;fontSize=12;fontStyle=0;container=1;pointerEvents=0;collapsible=0;recursiveResize=0;shape=mxgraph.aws4.group;grIcon=mxgraph.aws4.group_security_group;grStroke=0;strokeColor=#7AA116;fillColor=#F2F6E8;verticalAlign=top;align=left;spacingLeft=30;fontColor=#248814;dashed=0;" vertex="1" parent="1">
          <mxGeometry x="327" y="143" width="230" height="160" as="geometry" />
        </mxCell>
        <mxCell id="dV4cclxi9XEdyNf_fbqK-11" value="&lt;font style=&quot;font-size: 10px;&quot;&gt;WEB SERVER&lt;/font&gt;" style="points=[[0,0],[0.25,0],[0.5,0],[0.75,0],[1,0],[1,0.25],[1,0.5],[1,0.75],[1,1],[0.75,1],[0.5,1],[0.25,1],[0,1],[0,0.75],[0,0.5],[0,0.25]];outlineConnect=0;gradientColor=none;html=1;whiteSpace=wrap;fontSize=12;fontStyle=0;container=1;pointerEvents=0;collapsible=0;recursiveResize=0;shape=mxgraph.aws4.group;grIcon=mxgraph.aws4.group_ec2_instance_contents;strokeColor=#D86613;fillColor=none;verticalAlign=top;align=left;spacingLeft=30;fontColor=#D86613;dashed=0;" vertex="1" parent="dV4cclxi9XEdyNf_fbqK-8">
          <mxGeometry x="20" y="37.5" width="80" height="102.5" as="geometry" />
        </mxCell>
        <mxCell id="dV4cclxi9XEdyNf_fbqK-33" value="Nginx &amp;amp;&lt;div&gt;&amp;nbsp;ReactJS&lt;/div&gt;" style="text;html=1;align=center;verticalAlign=middle;resizable=0;points=[];autosize=1;strokeColor=none;fillColor=none;" vertex="1" parent="dV4cclxi9XEdyNf_fbqK-11">
          <mxGeometry y="45" width="80" height="40" as="geometry" />
        </mxCell>
        <mxCell id="dV4cclxi9XEdyNf_fbqK-42" value="&lt;font style=&quot;font-size: 10px;&quot;&gt;WEB-TIER-SUBNET-1 (10.0.1.0/24)&lt;/font&gt;" style="text;html=1;align=center;verticalAlign=middle;resizable=0;points=[];autosize=1;strokeColor=none;fillColor=none;" vertex="1" parent="dV4cclxi9XEdyNf_fbqK-8">
          <mxGeometry x="14" y="-28" width="200" height="40" as="geometry" />
        </mxCell>
        <mxCell id="dV4cclxi9XEdyNf_fbqK-61" value="" style="endArrow=classic;html=1;rounded=0;entryX=0;entryY=0;entryDx=0;entryDy=0;entryPerimeter=0;strokeColor=light-dark(#20FF31,#FFFFFF);" edge="1" parent="dV4cclxi9XEdyNf_fbqK-8" target="dV4cclxi9XEdyNf_fbqK-29">
          <mxGeometry width="50" height="50" relative="1" as="geometry">
            <mxPoint x="100" y="140" as="sourcePoint" />
            <mxPoint x="170" y="200" as="targetPoint" />
          </mxGeometry>
        </mxCell>
        <mxCell id="dV4cclxi9XEdyNf_fbqK-62" value="IAM &amp;amp; SSM" style="edgeLabel;html=1;align=center;verticalAlign=middle;resizable=0;points=[];" vertex="1" connectable="0" parent="dV4cclxi9XEdyNf_fbqK-61">
          <mxGeometry x="-0.1813" relative="1" as="geometry">
            <mxPoint as="offset" />
          </mxGeometry>
        </mxCell>
        <mxCell id="dV4cclxi9XEdyNf_fbqK-81" value="Nat Gateway" style="sketch=0;outlineConnect=0;fontColor=#232F3E;gradientColor=none;fillColor=#8C4FFF;strokeColor=none;dashed=0;verticalLabelPosition=bottom;verticalAlign=top;align=center;html=1;fontSize=12;fontStyle=0;aspect=fixed;pointerEvents=1;shape=mxgraph.aws4.nat_gateway;" vertex="1" parent="dV4cclxi9XEdyNf_fbqK-8">
          <mxGeometry x="153" y="61" width="38" height="38" as="geometry" />
        </mxCell>
        <mxCell id="dV4cclxi9XEdyNf_fbqK-13" value="Private subnet" style="points=[[0,0],[0.25,0],[0.5,0],[0.75,0],[1,0],[1,0.25],[1,0.5],[1,0.75],[1,1],[0.75,1],[0.5,1],[0.25,1],[0,1],[0,0.75],[0,0.5],[0,0.25]];outlineConnect=0;gradientColor=none;html=1;whiteSpace=wrap;fontSize=12;fontStyle=0;container=1;pointerEvents=0;collapsible=0;recursiveResize=0;shape=mxgraph.aws4.group;grIcon=mxgraph.aws4.group_security_group;grStroke=0;strokeColor=#00A4A6;fillColor=#E6F6F7;verticalAlign=top;align=left;spacingLeft=30;fontColor=#147EBA;dashed=0;" vertex="1" parent="1">
          <mxGeometry x="647" y="143" width="160" height="160" as="geometry" />
        </mxCell>
        <mxCell id="dV4cclxi9XEdyNf_fbqK-15" value="WEB SERVER" style="points=[[0,0],[0.25,0],[0.5,0],[0.75,0],[1,0],[1,0.25],[1,0.5],[1,0.75],[1,1],[0.75,1],[0.5,1],[0.25,1],[0,1],[0,0.75],[0,0.5],[0,0.25]];outlineConnect=0;gradientColor=none;html=1;whiteSpace=wrap;fontSize=12;fontStyle=0;container=1;pointerEvents=0;collapsible=0;recursiveResize=0;shape=mxgraph.aws4.group;grIcon=mxgraph.aws4.group_ec2_instance_contents;strokeColor=#D86613;fillColor=none;verticalAlign=top;align=left;spacingLeft=30;fontColor=#D86613;dashed=0;" vertex="1" parent="dV4cclxi9XEdyNf_fbqK-13">
          <mxGeometry x="20" y="37.5" width="130" height="85" as="geometry" />
        </mxCell>
        <mxCell id="dV4cclxi9XEdyNf_fbqK-34" value="MySQL &amp;amp; NodeJS" style="text;html=1;align=center;verticalAlign=middle;resizable=0;points=[];autosize=1;strokeColor=none;fillColor=none;" vertex="1" parent="dV4cclxi9XEdyNf_fbqK-15">
          <mxGeometry x="-10" y="31.25" width="140" height="40" as="geometry" />
        </mxCell>
        <mxCell id="dV4cclxi9XEdyNf_fbqK-14" value="Private subnet" style="points=[[0,0],[0.25,0],[0.5,0],[0.75,0],[1,0],[1,0.25],[1,0.5],[1,0.75],[1,1],[0.75,1],[0.5,1],[0.25,1],[0,1],[0,0.75],[0,0.5],[0,0.25]];outlineConnect=0;gradientColor=none;html=1;whiteSpace=wrap;fontSize=12;fontStyle=0;container=1;pointerEvents=0;collapsible=0;recursiveResize=0;shape=mxgraph.aws4.group;grIcon=mxgraph.aws4.group_security_group;grStroke=0;strokeColor=#00A4A6;fillColor=#E6F6F7;verticalAlign=top;align=left;spacingLeft=30;fontColor=#147EBA;dashed=0;" vertex="1" parent="1">
          <mxGeometry x="907" y="143" width="179" height="160" as="geometry" />
        </mxCell>
        <mxCell id="dV4cclxi9XEdyNf_fbqK-44" value="&lt;font style=&quot;font-size: 10px;&quot;&gt;DB-TIER-SUBNET-1 (10.0.3.0/24)&lt;/font&gt;" style="text;html=1;align=center;verticalAlign=middle;resizable=0;points=[];autosize=1;strokeColor=none;fillColor=none;" vertex="1" parent="dV4cclxi9XEdyNf_fbqK-14">
          <mxGeometry x="-10" y="-27" width="200" height="40" as="geometry" />
        </mxCell>
        <mxCell id="dV4cclxi9XEdyNf_fbqK-57" value="Primary" style="sketch=0;outlineConnect=0;fontColor=#232F3E;gradientColor=none;fillColor=#C925D1;strokeColor=none;dashed=0;verticalLabelPosition=bottom;verticalAlign=top;align=center;html=1;fontSize=12;fontStyle=0;aspect=fixed;pointerEvents=1;shape=mxgraph.aws4.rds_instance;" vertex="1" parent="dV4cclxi9XEdyNf_fbqK-14">
          <mxGeometry x="52" y="41.75" width="78" height="78" as="geometry" />
        </mxCell>
        <mxCell id="dV4cclxi9XEdyNf_fbqK-29" value="" style="sketch=0;points=[[0,0,0],[0.25,0,0],[0.5,0,0],[0.75,0,0],[1,0,0],[0,1,0],[0.25,1,0],[0.5,1,0],[0.75,1,0],[1,1,0],[0,0.25,0],[0,0.5,0],[0,0.75,0],[1,0.25,0],[1,0.5,0],[1,0.75,0]];outlineConnect=0;fontColor=#232F3E;fillColor=#7AA116;strokeColor=#ffffff;dashed=0;verticalLabelPosition=bottom;verticalAlign=top;align=center;html=1;fontSize=12;fontStyle=0;aspect=fixed;shape=mxgraph.aws4.resourceIcon;resIcon=mxgraph.aws4.s3;" vertex="1" parent="1">
          <mxGeometry x="647" y="384" width="60" height="60" as="geometry" />
        </mxCell>
        <mxCell id="dV4cclxi9XEdyNf_fbqK-43" value="&lt;font style=&quot;font-size: 10px;&quot;&gt;APP-TIER-SUBNET-1 (10.0.2.0/24)&lt;/font&gt;" style="text;html=1;align=center;verticalAlign=middle;resizable=0;points=[];autosize=1;strokeColor=none;fillColor=none;" vertex="1" parent="1">
          <mxGeometry x="627" y="115" width="200" height="40" as="geometry" />
        </mxCell>
        <mxCell id="dV4cclxi9XEdyNf_fbqK-45" value="Public subnet" style="points=[[0,0],[0.25,0],[0.5,0],[0.75,0],[1,0],[1,0.25],[1,0.5],[1,0.75],[1,1],[0.75,1],[0.5,1],[0.25,1],[0,1],[0,0.75],[0,0.5],[0,0.25]];outlineConnect=0;gradientColor=none;html=1;whiteSpace=wrap;fontSize=12;fontStyle=0;container=1;pointerEvents=0;collapsible=0;recursiveResize=0;shape=mxgraph.aws4.group;grIcon=mxgraph.aws4.group_security_group;grStroke=0;strokeColor=#7AA116;fillColor=#F2F6E8;verticalAlign=top;align=left;spacingLeft=30;fontColor=#248814;dashed=0;" vertex="1" parent="1">
          <mxGeometry x="328" y="580" width="230" height="160" as="geometry" />
        </mxCell>
        <mxCell id="dV4cclxi9XEdyNf_fbqK-46" value="&lt;font style=&quot;font-size: 10px;&quot;&gt;WEB SERVER&lt;/font&gt;" style="points=[[0,0],[0.25,0],[0.5,0],[0.75,0],[1,0],[1,0.25],[1,0.5],[1,0.75],[1,1],[0.75,1],[0.5,1],[0.25,1],[0,1],[0,0.75],[0,0.5],[0,0.25]];outlineConnect=0;gradientColor=none;html=1;whiteSpace=wrap;fontSize=12;fontStyle=0;container=1;pointerEvents=0;collapsible=0;recursiveResize=0;shape=mxgraph.aws4.group;grIcon=mxgraph.aws4.group_ec2_instance_contents;strokeColor=#D86613;fillColor=none;verticalAlign=top;align=left;spacingLeft=30;fontColor=#D86613;dashed=0;" vertex="1" parent="dV4cclxi9XEdyNf_fbqK-45">
          <mxGeometry x="20" y="37.5" width="80" height="102.5" as="geometry" />
        </mxCell>
        <mxCell id="dV4cclxi9XEdyNf_fbqK-47" value="Nginx &amp;amp;&lt;div&gt;&amp;nbsp;ReactJS&lt;/div&gt;" style="text;html=1;align=center;verticalAlign=middle;resizable=0;points=[];autosize=1;strokeColor=none;fillColor=none;" vertex="1" parent="dV4cclxi9XEdyNf_fbqK-46">
          <mxGeometry y="45" width="80" height="40" as="geometry" />
        </mxCell>
        <mxCell id="dV4cclxi9XEdyNf_fbqK-49" value="&lt;font style=&quot;font-size: 10px;&quot;&gt;WEB-TIER-SUBNET-2 (10.0.4.0/24)&lt;/font&gt;" style="text;html=1;align=center;verticalAlign=middle;resizable=0;points=[];autosize=1;strokeColor=none;fillColor=none;" vertex="1" parent="dV4cclxi9XEdyNf_fbqK-45">
          <mxGeometry x="14" y="-28" width="200" height="40" as="geometry" />
        </mxCell>
        <mxCell id="dV4cclxi9XEdyNf_fbqK-82" value="Nat Gateway" style="sketch=0;outlineConnect=0;fontColor=#232F3E;gradientColor=none;fillColor=#8C4FFF;strokeColor=none;dashed=0;verticalLabelPosition=bottom;verticalAlign=top;align=center;html=1;fontSize=12;fontStyle=0;aspect=fixed;pointerEvents=1;shape=mxgraph.aws4.nat_gateway;" vertex="1" parent="dV4cclxi9XEdyNf_fbqK-45">
          <mxGeometry x="152" y="61" width="38" height="38" as="geometry" />
        </mxCell>
        <mxCell id="dV4cclxi9XEdyNf_fbqK-50" value="Private subnet" style="points=[[0,0],[0.25,0],[0.5,0],[0.75,0],[1,0],[1,0.25],[1,0.5],[1,0.75],[1,1],[0.75,1],[0.5,1],[0.25,1],[0,1],[0,0.75],[0,0.5],[0,0.25]];outlineConnect=0;gradientColor=none;html=1;whiteSpace=wrap;fontSize=12;fontStyle=0;container=1;pointerEvents=0;collapsible=0;recursiveResize=0;shape=mxgraph.aws4.group;grIcon=mxgraph.aws4.group_security_group;grStroke=0;strokeColor=#00A4A6;fillColor=#E6F6F7;verticalAlign=top;align=left;spacingLeft=30;fontColor=#147EBA;dashed=0;" vertex="1" parent="1">
          <mxGeometry x="655" y="574" width="160" height="160" as="geometry" />
        </mxCell>
        <mxCell id="dV4cclxi9XEdyNf_fbqK-106" style="edgeStyle=orthogonalEdgeStyle;rounded=0;orthogonalLoop=1;jettySize=auto;html=1;" edge="1" parent="dV4cclxi9XEdyNf_fbqK-50" source="dV4cclxi9XEdyNf_fbqK-51">
          <mxGeometry relative="1" as="geometry">
            <mxPoint x="205" y="-354" as="targetPoint" />
          </mxGeometry>
        </mxCell>
        <mxCell id="dV4cclxi9XEdyNf_fbqK-51" value="WEB SERVER" style="points=[[0,0],[0.25,0],[0.5,0],[0.75,0],[1,0],[1,0.25],[1,0.5],[1,0.75],[1,1],[0.75,1],[0.5,1],[0.25,1],[0,1],[0,0.75],[0,0.5],[0,0.25]];outlineConnect=0;gradientColor=none;html=1;whiteSpace=wrap;fontSize=12;fontStyle=0;container=1;pointerEvents=0;collapsible=0;recursiveResize=0;shape=mxgraph.aws4.group;grIcon=mxgraph.aws4.group_ec2_instance_contents;strokeColor=#D86613;fillColor=none;verticalAlign=top;align=left;spacingLeft=30;fontColor=#D86613;dashed=0;" vertex="1" parent="dV4cclxi9XEdyNf_fbqK-50">
          <mxGeometry x="20" y="37.5" width="130" height="85" as="geometry" />
        </mxCell>
        <mxCell id="dV4cclxi9XEdyNf_fbqK-52" value="MySQL &amp;amp; NodeJS" style="text;html=1;align=center;verticalAlign=middle;resizable=0;points=[];autosize=1;strokeColor=none;fillColor=none;" vertex="1" parent="dV4cclxi9XEdyNf_fbqK-51">
          <mxGeometry x="-10" y="31.25" width="140" height="40" as="geometry" />
        </mxCell>
        <mxCell id="dV4cclxi9XEdyNf_fbqK-53" value="Private subnet" style="points=[[0,0],[0.25,0],[0.5,0],[0.75,0],[1,0],[1,0.25],[1,0.5],[1,0.75],[1,1],[0.75,1],[0.5,1],[0.25,1],[0,1],[0,0.75],[0,0.5],[0,0.25]];outlineConnect=0;gradientColor=none;html=1;whiteSpace=wrap;fontSize=12;fontStyle=0;container=1;pointerEvents=0;collapsible=0;recursiveResize=0;shape=mxgraph.aws4.group;grIcon=mxgraph.aws4.group_security_group;grStroke=0;strokeColor=#00A4A6;fillColor=#E6F6F7;verticalAlign=top;align=left;spacingLeft=30;fontColor=#147EBA;dashed=0;" vertex="1" parent="1">
          <mxGeometry x="915" y="574" width="179" height="160" as="geometry" />
        </mxCell>
        <mxCell id="dV4cclxi9XEdyNf_fbqK-58" value="Backup" style="sketch=0;outlineConnect=0;fontColor=#232F3E;gradientColor=none;fillColor=#C925D1;strokeColor=none;dashed=0;verticalLabelPosition=bottom;verticalAlign=top;align=center;html=1;fontSize=12;fontStyle=0;aspect=fixed;pointerEvents=1;shape=mxgraph.aws4.rds_instance;" vertex="1" parent="dV4cclxi9XEdyNf_fbqK-53">
          <mxGeometry x="44.5" y="44.5" width="78" height="78" as="geometry" />
        </mxCell>
        <mxCell id="dV4cclxi9XEdyNf_fbqK-56" value="&lt;font style=&quot;font-size: 10px;&quot;&gt;APP-TIER-SUBNET-2 (10.0.5.0/24)&lt;/font&gt;" style="text;html=1;align=center;verticalAlign=middle;resizable=0;points=[];autosize=1;strokeColor=none;fillColor=none;" vertex="1" parent="1">
          <mxGeometry x="635" y="546" width="200" height="40" as="geometry" />
        </mxCell>
        <mxCell id="dV4cclxi9XEdyNf_fbqK-55" value="&lt;font style=&quot;font-size: 10px;&quot;&gt;DB-TIER-SUBNET-2 (10.0.6.0/24)&lt;/font&gt;" style="text;html=1;align=center;verticalAlign=middle;resizable=0;points=[];autosize=1;strokeColor=none;fillColor=none;" vertex="1" parent="1">
          <mxGeometry x="904.5" y="547" width="200" height="40" as="geometry" />
        </mxCell>
        <mxCell id="dV4cclxi9XEdyNf_fbqK-63" value="" style="endArrow=classic;html=1;rounded=0;entryX=0;entryY=1;entryDx=0;entryDy=0;entryPerimeter=0;strokeColor=light-dark(#20FF31,#FFFFFF);exitX=1;exitY=0;exitDx=0;exitDy=0;" edge="1" parent="1" source="dV4cclxi9XEdyNf_fbqK-46" target="dV4cclxi9XEdyNf_fbqK-29">
          <mxGeometry width="50" height="50" relative="1" as="geometry">
            <mxPoint x="375" y="415" as="sourcePoint" />
            <mxPoint x="475" y="495" as="targetPoint" />
          </mxGeometry>
        </mxCell>
        <mxCell id="dV4cclxi9XEdyNf_fbqK-65" value="IAM &amp;amp; SSM" style="edgeLabel;html=1;align=center;verticalAlign=middle;resizable=0;points=[];" vertex="1" connectable="0" parent="dV4cclxi9XEdyNf_fbqK-63">
          <mxGeometry x="0.2492" y="1" relative="1" as="geometry">
            <mxPoint as="offset" />
          </mxGeometry>
        </mxCell>
        <mxCell id="dV4cclxi9XEdyNf_fbqK-66" value="" style="endArrow=classic;html=1;rounded=0;entryX=1;entryY=0;entryDx=0;entryDy=0;entryPerimeter=0;strokeColor=light-dark(#20FF31,#FFFFFF);exitX=0;exitY=1;exitDx=0;exitDy=0;" edge="1" parent="1" source="dV4cclxi9XEdyNf_fbqK-15" target="dV4cclxi9XEdyNf_fbqK-29">
          <mxGeometry width="50" height="50" relative="1" as="geometry">
            <mxPoint x="627" y="488" as="sourcePoint" />
            <mxPoint x="749" y="339" as="targetPoint" />
          </mxGeometry>
        </mxCell>
        <mxCell id="dV4cclxi9XEdyNf_fbqK-67" value="IAM &amp;amp; SSM" style="edgeLabel;html=1;align=center;verticalAlign=middle;resizable=0;points=[];" vertex="1" connectable="0" parent="dV4cclxi9XEdyNf_fbqK-66">
          <mxGeometry x="0.2492" y="1" relative="1" as="geometry">
            <mxPoint as="offset" />
          </mxGeometry>
        </mxCell>
        <mxCell id="dV4cclxi9XEdyNf_fbqK-68" value="" style="endArrow=classic;html=1;rounded=0;entryX=1;entryY=1;entryDx=0;entryDy=0;entryPerimeter=0;strokeColor=light-dark(#20FF31,#FFFFFF);exitX=0;exitY=0;exitDx=0;exitDy=0;" edge="1" parent="1" source="dV4cclxi9XEdyNf_fbqK-51" target="dV4cclxi9XEdyNf_fbqK-29">
          <mxGeometry width="50" height="50" relative="1" as="geometry">
            <mxPoint x="475" y="652" as="sourcePoint" />
            <mxPoint x="597" y="503" as="targetPoint" />
          </mxGeometry>
        </mxCell>
        <mxCell id="dV4cclxi9XEdyNf_fbqK-69" value="IAM &amp;amp; SSM" style="edgeLabel;html=1;align=center;verticalAlign=middle;resizable=0;points=[];" vertex="1" connectable="0" parent="dV4cclxi9XEdyNf_fbqK-68">
          <mxGeometry x="0.2492" y="1" relative="1" as="geometry">
            <mxPoint as="offset" />
          </mxGeometry>
        </mxCell>
        <mxCell id="dV4cclxi9XEdyNf_fbqK-119" style="edgeStyle=orthogonalEdgeStyle;rounded=0;orthogonalLoop=1;jettySize=auto;html=1;strokeColor=light-dark(#808080,#FFFFFF);" edge="1" parent="1" source="dV4cclxi9XEdyNf_fbqK-70" target="dV4cclxi9XEdyNf_fbqK-98">
          <mxGeometry relative="1" as="geometry" />
        </mxCell>
        <mxCell id="dV4cclxi9XEdyNf_fbqK-70" value="External Load&lt;div&gt;&amp;nbsp;Balancer&lt;/div&gt;" style="outlineConnect=0;dashed=0;verticalLabelPosition=bottom;verticalAlign=top;align=center;html=1;shape=mxgraph.aws3.application_load_balancer;fillColor=#F58534;gradientColor=none;" vertex="1" parent="1">
          <mxGeometry x="160" y="330" width="69" height="72" as="geometry" />
        </mxCell>
        <mxCell id="dV4cclxi9XEdyNf_fbqK-71" value="ASG" style="sketch=0;outlineConnect=0;fontColor=#232F3E;gradientColor=none;fillColor=#ED7100;strokeColor=none;dashed=0;verticalLabelPosition=bottom;verticalAlign=top;align=center;html=1;fontSize=12;fontStyle=0;aspect=fixed;pointerEvents=1;shape=mxgraph.aws4.auto_scaling2;" vertex="1" parent="1">
          <mxGeometry x="240" y="342" width="50" height="50" as="geometry" />
        </mxCell>
        <mxCell id="dV4cclxi9XEdyNf_fbqK-72" value="Internal Load&lt;div&gt;&amp;nbsp;Balancer&lt;/div&gt;" style="outlineConnect=0;dashed=0;verticalLabelPosition=bottom;verticalAlign=top;align=center;html=1;shape=mxgraph.aws3.application_load_balancer;fillColor=#F58534;gradientColor=none;" vertex="1" parent="1">
          <mxGeometry x="455" y="390" width="69" height="72" as="geometry" />
        </mxCell>
        <mxCell id="dV4cclxi9XEdyNf_fbqK-73" value="ASG" style="sketch=0;outlineConnect=0;fontColor=#232F3E;gradientColor=none;fillColor=#ED7100;strokeColor=none;dashed=0;verticalLabelPosition=bottom;verticalAlign=top;align=center;html=1;fontSize=12;fontStyle=0;aspect=fixed;pointerEvents=1;shape=mxgraph.aws4.auto_scaling2;" vertex="1" parent="1">
          <mxGeometry x="535" y="402" width="50" height="50" as="geometry" />
        </mxCell>
        <mxCell id="dV4cclxi9XEdyNf_fbqK-78" value="" style="edgeStyle=orthogonalEdgeStyle;rounded=0;orthogonalLoop=1;jettySize=auto;html=1;strokeColor=light-dark(#9933FF,#FFFFFF);" edge="1" parent="1" source="dV4cclxi9XEdyNf_fbqK-76" target="dV4cclxi9XEdyNf_fbqK-77">
          <mxGeometry relative="1" as="geometry" />
        </mxCell>
        <mxCell id="dV4cclxi9XEdyNf_fbqK-76" value="Internet Gateway" style="sketch=0;outlineConnect=0;fontColor=#232F3E;gradientColor=none;fillColor=#8C4FFF;strokeColor=none;dashed=0;verticalLabelPosition=bottom;verticalAlign=top;align=center;html=1;fontSize=12;fontStyle=0;aspect=fixed;pointerEvents=1;shape=mxgraph.aws4.internet_gateway;" vertex="1" parent="1">
          <mxGeometry x="173" y="445" width="56" height="56" as="geometry" />
        </mxCell>
        <mxCell id="dV4cclxi9XEdyNf_fbqK-79" style="edgeStyle=orthogonalEdgeStyle;rounded=0;orthogonalLoop=1;jettySize=auto;html=1;entryX=0;entryY=1;entryDx=0;entryDy=0;fillColor=#9933FF;strokeColor=light-dark(#9933FF,#FFFFFF);" edge="1" parent="1" source="dV4cclxi9XEdyNf_fbqK-77" target="dV4cclxi9XEdyNf_fbqK-8">
          <mxGeometry relative="1" as="geometry" />
        </mxCell>
        <mxCell id="dV4cclxi9XEdyNf_fbqK-80" style="edgeStyle=orthogonalEdgeStyle;rounded=0;orthogonalLoop=1;jettySize=auto;html=1;entryX=0;entryY=0;entryDx=0;entryDy=0;strokeColor=light-dark(#9933FF,#FFFFFF);" edge="1" parent="1" source="dV4cclxi9XEdyNf_fbqK-77" target="dV4cclxi9XEdyNf_fbqK-45">
          <mxGeometry relative="1" as="geometry" />
        </mxCell>
        <mxCell id="dV4cclxi9XEdyNf_fbqK-77" value="Web Route Table" style="sketch=0;outlineConnect=0;fontColor=#232F3E;gradientColor=none;fillColor=#8C4FFF;strokeColor=none;dashed=0;verticalLabelPosition=bottom;verticalAlign=top;align=center;html=1;fontSize=12;fontStyle=0;aspect=fixed;pointerEvents=1;shape=mxgraph.aws4.route_table;" vertex="1" parent="1">
          <mxGeometry x="340" y="446" width="55.42" height="54" as="geometry" />
        </mxCell>
        <mxCell id="dV4cclxi9XEdyNf_fbqK-90" style="edgeStyle=orthogonalEdgeStyle;rounded=0;orthogonalLoop=1;jettySize=auto;html=1;strokeColor=light-dark(#9933FF,#FFFFFF);" edge="1" parent="1">
          <mxGeometry relative="1" as="geometry">
            <mxPoint x="643" y="223" as="targetPoint" />
            <mxPoint x="622.7899732992803" y="223.02564102564105" as="sourcePoint" />
          </mxGeometry>
        </mxCell>
        <mxCell id="dV4cclxi9XEdyNf_fbqK-84" value="App&amp;nbsp;&lt;div&gt;Route Table&lt;/div&gt;" style="sketch=0;outlineConnect=0;fontColor=#232F3E;gradientColor=none;fillColor=#8C4FFF;strokeColor=none;dashed=0;verticalLabelPosition=bottom;verticalAlign=top;align=center;html=1;fontSize=12;fontStyle=0;aspect=fixed;pointerEvents=1;shape=mxgraph.aws4.route_table;" vertex="1" parent="1">
          <mxGeometry x="585" y="206" width="34.89" height="34" as="geometry" />
        </mxCell>
        <mxCell id="dV4cclxi9XEdyNf_fbqK-91" style="edgeStyle=orthogonalEdgeStyle;rounded=0;orthogonalLoop=1;jettySize=auto;html=1;strokeColor=light-dark(#9933FF,#FFFFFF);" edge="1" parent="1">
          <mxGeometry relative="1" as="geometry">
            <mxPoint x="644" y="660" as="targetPoint" />
            <mxPoint x="623.7899732992803" y="660" as="sourcePoint" />
          </mxGeometry>
        </mxCell>
        <mxCell id="dV4cclxi9XEdyNf_fbqK-85" value="App&amp;nbsp;&lt;div&gt;Route Table&lt;/div&gt;" style="sketch=0;outlineConnect=0;fontColor=#232F3E;gradientColor=none;fillColor=#8C4FFF;strokeColor=none;dashed=0;verticalLabelPosition=bottom;verticalAlign=top;align=center;html=1;fontSize=12;fontStyle=0;aspect=fixed;pointerEvents=1;shape=mxgraph.aws4.route_table;" vertex="1" parent="1">
          <mxGeometry x="585" y="643" width="34.89" height="34" as="geometry" />
        </mxCell>
        <mxCell id="dV4cclxi9XEdyNf_fbqK-87" value="" style="edgeStyle=orthogonalEdgeStyle;rounded=0;orthogonalLoop=1;jettySize=auto;html=1;strokeColor=light-dark(#9933FF,#FFFFFF);" edge="1" parent="1" source="dV4cclxi9XEdyNf_fbqK-82" target="dV4cclxi9XEdyNf_fbqK-85">
          <mxGeometry relative="1" as="geometry" />
        </mxCell>
        <mxCell id="dV4cclxi9XEdyNf_fbqK-88" value="" style="edgeStyle=orthogonalEdgeStyle;rounded=0;orthogonalLoop=1;jettySize=auto;html=1;strokeColor=light-dark(#9933FF,#FFFFFF);" edge="1" parent="1" source="dV4cclxi9XEdyNf_fbqK-81" target="dV4cclxi9XEdyNf_fbqK-84">
          <mxGeometry relative="1" as="geometry" />
        </mxCell>
        <mxCell id="dV4cclxi9XEdyNf_fbqK-94" value="" style="endArrow=classic;html=1;rounded=0;entryX=0.5;entryY=1;entryDx=0;entryDy=0;strokeColor=light-dark(#FF8000,#FFFFFF);" edge="1" parent="1" source="dV4cclxi9XEdyNf_fbqK-71" target="dV4cclxi9XEdyNf_fbqK-11">
          <mxGeometry width="50" height="50" relative="1" as="geometry">
            <mxPoint x="299.99528735632185" y="365" as="sourcePoint" />
            <mxPoint x="360.57" y="303" as="targetPoint" />
          </mxGeometry>
        </mxCell>
        <mxCell id="dV4cclxi9XEdyNf_fbqK-95" value="" style="endArrow=classic;html=1;rounded=0;entryX=0.5;entryY=0;entryDx=0;entryDy=0;strokeColor=light-dark(#FF8000,#FFFFFF);" edge="1" parent="1" source="dV4cclxi9XEdyNf_fbqK-71" target="dV4cclxi9XEdyNf_fbqK-46">
          <mxGeometry width="50" height="50" relative="1" as="geometry">
            <mxPoint x="300" y="380" as="sourcePoint" />
            <mxPoint x="407" y="303" as="targetPoint" />
          </mxGeometry>
        </mxCell>
        <mxCell id="dV4cclxi9XEdyNf_fbqK-96" value="" style="endArrow=classic;html=1;rounded=0;entryX=0.5;entryY=1;entryDx=0;entryDy=0;strokeColor=light-dark(#FF8000,#FFFFFF);" edge="1" parent="1" source="dV4cclxi9XEdyNf_fbqK-73" target="dV4cclxi9XEdyNf_fbqK-15">
          <mxGeometry width="50" height="50" relative="1" as="geometry">
            <mxPoint x="584" y="402" as="sourcePoint" />
            <mxPoint x="681" y="335" as="targetPoint" />
          </mxGeometry>
        </mxCell>
        <mxCell id="dV4cclxi9XEdyNf_fbqK-97" value="" style="endArrow=classic;html=1;rounded=0;entryX=0.5;entryY=0;entryDx=0;entryDy=0;strokeColor=light-dark(#FF8000,#FFFFFF);" edge="1" parent="1" source="dV4cclxi9XEdyNf_fbqK-73" target="dV4cclxi9XEdyNf_fbqK-51">
          <mxGeometry width="50" height="50" relative="1" as="geometry">
            <mxPoint x="647" y="529" as="sourcePoint" />
            <mxPoint x="744" y="462" as="targetPoint" />
          </mxGeometry>
        </mxCell>
        <mxCell id="dV4cclxi9XEdyNf_fbqK-120" style="edgeStyle=orthogonalEdgeStyle;rounded=0;orthogonalLoop=1;jettySize=auto;html=1;strokeColor=light-dark(#808080,#FFFFFF);" edge="1" parent="1" source="dV4cclxi9XEdyNf_fbqK-98">
          <mxGeometry relative="1" as="geometry">
            <mxPoint x="60" y="250" as="targetPoint" />
          </mxGeometry>
        </mxCell>
        <mxCell id="dV4cclxi9XEdyNf_fbqK-98" value="SNS" style="sketch=0;points=[[0,0,0],[0.25,0,0],[0.5,0,0],[0.75,0,0],[1,0,0],[0,1,0],[0.25,1,0],[0.5,1,0],[0.75,1,0],[1,1,0],[0,0.25,0],[0,0.5,0],[0,0.75,0],[1,0.25,0],[1,0.5,0],[1,0.75,0]];outlineConnect=0;fontColor=#232F3E;fillColor=#E7157B;strokeColor=#ffffff;dashed=0;verticalLabelPosition=bottom;verticalAlign=top;align=center;html=1;fontSize=12;fontStyle=0;aspect=fixed;shape=mxgraph.aws4.resourceIcon;resIcon=mxgraph.aws4.sns;" vertex="1" parent="1">
          <mxGeometry x="167.5" y="223" width="54" height="54" as="geometry" />
        </mxCell>
        <mxCell id="dV4cclxi9XEdyNf_fbqK-99" value="User" style="dashed=0;outlineConnect=0;html=1;align=center;labelPosition=center;verticalLabelPosition=bottom;verticalAlign=top;shape=mxgraph.weblogos.gmail" vertex="1" parent="1">
          <mxGeometry x="17" y="240" width="40" height="20" as="geometry" />
        </mxCell>
        <mxCell id="dV4cclxi9XEdyNf_fbqK-123" value="" style="edgeStyle=orthogonalEdgeStyle;rounded=0;orthogonalLoop=1;jettySize=auto;html=1;strokeColor=light-dark(#808080,#FFFFFF);" edge="1" parent="1" source="dV4cclxi9XEdyNf_fbqK-100" target="dV4cclxi9XEdyNf_fbqK-101">
          <mxGeometry relative="1" as="geometry" />
        </mxCell>
        <mxCell id="dV4cclxi9XEdyNf_fbqK-100" value="CloudWatch" style="sketch=0;points=[[0,0,0],[0.25,0,0],[0.5,0,0],[0.75,0,0],[1,0,0],[0,1,0],[0.25,1,0],[0.5,1,0],[0.75,1,0],[1,1,0],[0,0.25,0],[0,0.5,0],[0,0.75,0],[1,0.25,0],[1,0.5,0],[1,0.75,0]];points=[[0,0,0],[0.25,0,0],[0.5,0,0],[0.75,0,0],[1,0,0],[0,1,0],[0.25,1,0],[0.5,1,0],[0.75,1,0],[1,1,0],[0,0.25,0],[0,0.5,0],[0,0.75,0],[1,0.25,0],[1,0.5,0],[1,0.75,0]];outlineConnect=0;fontColor=#232F3E;fillColor=#E7157B;strokeColor=#ffffff;dashed=0;verticalLabelPosition=bottom;verticalAlign=top;align=center;html=1;fontSize=12;fontStyle=0;aspect=fixed;shape=mxgraph.aws4.resourceIcon;resIcon=mxgraph.aws4.cloudwatch_2;" vertex="1" parent="1">
          <mxGeometry x="327" y="20" width="60" height="60" as="geometry" />
        </mxCell>
        <mxCell id="dV4cclxi9XEdyNf_fbqK-124" value="" style="edgeStyle=orthogonalEdgeStyle;rounded=0;orthogonalLoop=1;jettySize=auto;html=1;strokeColor=light-dark(#808080,#FFFFFF);" edge="1" parent="1" source="dV4cclxi9XEdyNf_fbqK-101" target="dV4cclxi9XEdyNf_fbqK-102">
          <mxGeometry relative="1" as="geometry" />
        </mxCell>
        <mxCell id="dV4cclxi9XEdyNf_fbqK-101" value="SNS" style="sketch=0;points=[[0,0,0],[0.25,0,0],[0.5,0,0],[0.75,0,0],[1,0,0],[0,1,0],[0.25,1,0],[0.5,1,0],[0.75,1,0],[1,1,0],[0,0.25,0],[0,0.5,0],[0,0.75,0],[1,0.25,0],[1,0.5,0],[1,0.75,0]];outlineConnect=0;fontColor=#232F3E;fillColor=#E7157B;strokeColor=#ffffff;dashed=0;verticalLabelPosition=bottom;verticalAlign=top;align=center;html=1;fontSize=12;fontStyle=0;aspect=fixed;shape=mxgraph.aws4.resourceIcon;resIcon=mxgraph.aws4.sns;" vertex="1" parent="1">
          <mxGeometry x="440" y="23" width="54" height="54" as="geometry" />
        </mxCell>
        <mxCell id="dV4cclxi9XEdyNf_fbqK-102" value="User" style="dashed=0;outlineConnect=0;html=1;align=center;labelPosition=center;verticalLabelPosition=bottom;verticalAlign=top;shape=mxgraph.weblogos.gmail" vertex="1" parent="1">
          <mxGeometry x="545" y="39" width="40" height="20" as="geometry" />
        </mxCell>
        <mxCell id="dV4cclxi9XEdyNf_fbqK-103" value="CloudTrail" style="sketch=0;points=[[0,0,0],[0.25,0,0],[0.5,0,0],[0.75,0,0],[1,0,0],[0,1,0],[0.25,1,0],[0.5,1,0],[0.75,1,0],[1,1,0],[0,0.25,0],[0,0.5,0],[0,0.75,0],[1,0.25,0],[1,0.5,0],[1,0.75,0]];points=[[0,0,0],[0.25,0,0],[0.5,0,0],[0.75,0,0],[1,0,0],[0,1,0],[0.25,1,0],[0.5,1,0],[0.75,1,0],[1,1,0],[0,0.25,0],[0,0.5,0],[0,0.75,0],[1,0.25,0],[1,0.5,0],[1,0.75,0]];outlineConnect=0;fontColor=#232F3E;fillColor=#E7157B;strokeColor=#ffffff;dashed=0;verticalLabelPosition=bottom;verticalAlign=top;align=center;html=1;fontSize=12;fontStyle=0;aspect=fixed;shape=mxgraph.aws4.resourceIcon;resIcon=mxgraph.aws4.cloudtrail;" vertex="1" parent="1">
          <mxGeometry x="151" y="586" width="78" height="78" as="geometry" />
        </mxCell>
        <mxCell id="dV4cclxi9XEdyNf_fbqK-105" style="edgeStyle=orthogonalEdgeStyle;rounded=0;orthogonalLoop=1;jettySize=auto;html=1;" edge="1" parent="1" source="dV4cclxi9XEdyNf_fbqK-15" target="dV4cclxi9XEdyNf_fbqK-57">
          <mxGeometry relative="1" as="geometry" />
        </mxCell>
        <mxCell id="dV4cclxi9XEdyNf_fbqK-109" value="" style="endArrow=none;dashed=1;html=1;dashPattern=1 3;strokeWidth=2;rounded=0;" edge="1" parent="1" source="dV4cclxi9XEdyNf_fbqK-58" target="dV4cclxi9XEdyNf_fbqK-57">
          <mxGeometry width="50" height="50" relative="1" as="geometry">
            <mxPoint x="720" y="450" as="sourcePoint" />
            <mxPoint x="770" y="400" as="targetPoint" />
          </mxGeometry>
        </mxCell>
        <mxCell id="dV4cclxi9XEdyNf_fbqK-110" value="Route 53" style="sketch=0;points=[[0,0,0],[0.25,0,0],[0.5,0,0],[0.75,0,0],[1,0,0],[0,1,0],[0.25,1,0],[0.5,1,0],[0.75,1,0],[1,1,0],[0,0.25,0],[0,0.5,0],[0,0.75,0],[1,0.25,0],[1,0.5,0],[1,0.75,0]];outlineConnect=0;fontColor=#232F3E;fillColor=#8C4FFF;strokeColor=#ffffff;dashed=0;verticalLabelPosition=bottom;verticalAlign=top;align=center;html=1;fontSize=12;fontStyle=0;aspect=fixed;shape=mxgraph.aws4.resourceIcon;resIcon=mxgraph.aws4.route_53;" vertex="1" parent="1">
          <mxGeometry x="5" y="333" width="66" height="66" as="geometry" />
        </mxCell>
        <mxCell id="dV4cclxi9XEdyNf_fbqK-111" value="az-1a" style="sketch=0;outlineConnect=0;gradientColor=none;html=1;whiteSpace=wrap;fontSize=12;fontStyle=0;shape=mxgraph.aws4.group;grIcon=mxgraph.aws4.group_availability_zone;strokeColor=#545B64;fillColor=none;verticalAlign=top;align=left;spacingLeft=30;fontColor=#545B64;dashed=1;" vertex="1" parent="1">
          <mxGeometry x="240" y="105" width="880" height="210" as="geometry" />
        </mxCell>
        <mxCell id="dV4cclxi9XEdyNf_fbqK-112" value="az-1b" style="sketch=0;outlineConnect=0;gradientColor=none;html=1;whiteSpace=wrap;fontSize=12;fontStyle=0;shape=mxgraph.aws4.group;grIcon=mxgraph.aws4.group_availability_zone;strokeColor=#545B64;fillColor=none;verticalAlign=top;align=left;spacingLeft=30;fontColor=#545B64;dashed=1;" vertex="1" parent="1">
          <mxGeometry x="240" y="541" width="880" height="210" as="geometry" />
        </mxCell>
        <mxCell id="dV4cclxi9XEdyNf_fbqK-114" value="VPC" style="sketch=0;outlineConnect=0;gradientColor=none;html=1;whiteSpace=wrap;fontSize=12;fontStyle=0;shape=mxgraph.aws4.group;grIcon=mxgraph.aws4.group_vpc;strokeColor=#879196;fillColor=none;verticalAlign=top;align=left;spacingLeft=30;fontColor=#879196;dashed=0;" vertex="1" parent="1">
          <mxGeometry x="140" y="12" width="1010.5" height="780" as="geometry" />
        </mxCell>
        <mxCell id="dV4cclxi9XEdyNf_fbqK-117" style="edgeStyle=orthogonalEdgeStyle;rounded=0;orthogonalLoop=1;jettySize=auto;html=1;entryX=0;entryY=0.5;entryDx=0;entryDy=0;entryPerimeter=0;" edge="1" parent="1" source="dV4cclxi9XEdyNf_fbqK-110" target="dV4cclxi9XEdyNf_fbqK-70">
          <mxGeometry relative="1" as="geometry" />
        </mxCell>
        <mxCell id="dV4cclxi9XEdyNf_fbqK-122" style="edgeStyle=orthogonalEdgeStyle;rounded=0;orthogonalLoop=1;jettySize=auto;html=1;entryX=0;entryY=0.5;entryDx=0;entryDy=0;entryPerimeter=0;strokeColor=light-dark(#808080,#FFFFFF);" edge="1" parent="1" source="dV4cclxi9XEdyNf_fbqK-11" target="dV4cclxi9XEdyNf_fbqK-100">
          <mxGeometry relative="1" as="geometry">
            <Array as="points">
              <mxPoint x="387" y="180" />
              <mxPoint x="307" y="180" />
              <mxPoint x="307" y="50" />
            </Array>
          </mxGeometry>
        </mxCell>
      </root>
    </mxGraphModel>
  </diagram>
</mxfile>
